<svg width="104" height="32" viewBox="0 0 104 32" fill="none" xmlns="http://www.w3.org/2000/svg">
<path d="M32.945 8.28174C31.7388 8.28174 30.5758 8.43228 30.1019 8.56129C29.4127 8.75473 29.2403 9.05565 29.1111 9.67902L26.3758 22.2762C26.3327 22.5342 26.2896 22.7492 26.2896 22.9642C26.2896 23.5882 26.6989 23.996 27.3665 23.996C28.0989 23.996 28.4004 23.5231 28.5512 22.7923L29.3265 19.2023C29.8649 19.2667 30.5758 19.3311 31.5881 19.3311C36.0466 19.3311 38.8248 16.9236 38.8248 13.2905C38.825 10.109 36.6065 8.28174 32.945 8.28174ZM31.4804 17.2673C30.7912 17.2673 30.2527 17.2459 29.7572 17.1813L31.2004 10.4958C31.6527 10.4312 32.3204 10.3453 33.0097 10.3453C35.3789 10.3453 36.5851 11.4632 36.5851 13.3119C36.5851 15.6767 34.862 17.2674 31.4798 17.2674L31.4804 17.2673Z" fill="white"/>
<path d="M103.117 19.8471C102.751 19.8471 102.514 20.0621 102.062 20.5564C101.265 21.3734 100.769 21.8247 100.145 21.8247C99.5848 21.8247 99.2831 21.3734 99.2831 20.6424C99.2831 20.234 99.3694 19.7396 99.4771 19.2022L100.274 15.4617H102.666C103.419 15.4617 103.872 15.0318 103.872 14.2578C103.872 13.8279 103.592 13.5055 102.946 13.5055H100.705L101.092 11.7642C101.135 11.5063 101.179 11.2698 101.179 11.0549C101.179 10.4529 100.769 10.0229 100.102 10.0229C99.3908 10.0229 99.0677 10.4959 98.917 11.2268L98.4216 13.5055H97.4094C96.634 13.5055 96.1816 13.9354 96.1816 14.7093C96.1816 15.1392 96.4831 15.4617 97.1293 15.4617H98.0124L97.2153 19.1589C97.1291 19.5673 97.0214 20.2337 97.0214 20.9216C97.0214 22.6629 97.9261 23.9312 99.8645 23.9312C100.985 23.9312 101.975 23.3722 102.729 22.7058C103.461 22.0609 104 21.2656 104 20.7496C104 20.2555 103.613 19.8471 103.117 19.8471Z" fill="white"/>
<path d="M53.5787 9.55C53.5787 8.926 53.1479 8.51807 52.4802 8.51807C51.7695 8.51807 51.4464 8.99106 51.2956 9.72191L48.6033 22.2116C48.5386 22.4697 48.4956 22.6846 48.4956 22.8996C48.4956 23.5236 48.9264 23.9314 49.5725 23.9314C50.3048 23.9314 50.6279 23.4584 50.7787 22.7275L53.4714 10.2378C53.5141 9.97993 53.5787 9.76496 53.5787 9.55Z" fill="white"/>
<path d="M92.0248 13.2904C88.5787 13.2904 86.2309 16.7085 86.2309 19.9545C86.2309 20.0153 86.2325 20.0754 86.2344 20.1353C85.6939 20.9543 85.0033 21.8032 84.5294 21.8032C84.1848 21.8032 84.0555 21.4808 84.0555 20.9863C84.0555 20.3844 84.2275 19.374 84.4218 18.4926L86.2095 10.2378C86.2525 9.97993 86.2956 9.76496 86.2956 9.55C86.2956 8.926 85.8864 8.51807 85.2187 8.51807C84.4865 8.51807 84.1848 8.99106 84.0341 9.72191L83.0651 14.1933C82.5479 13.6559 81.7934 13.2904 80.6524 13.2904C78.3637 13.2904 76.0619 15.049 75.1647 17.7457C74.1767 20.295 73.2938 21.8032 72.5972 21.8032C72.3388 21.8032 72.188 21.5883 72.188 21.2228C72.188 20.1479 72.791 17.5256 73.0495 16.257C73.1356 15.784 73.1788 15.5906 73.1788 15.311C73.1788 14.3652 71.6064 13.2473 69.5603 13.2473C67.1943 13.2473 65.0513 14.7427 63.9766 16.9656C62.3809 19.7801 60.9164 21.8037 60.1913 21.8037C59.8682 21.8037 59.7605 21.3951 59.6744 21.0081L59.136 18.0415L62.4314 15.3544C62.7329 15.0964 63.1205 14.7304 63.1205 14.258C63.1205 13.6777 62.7329 13.2908 62.1515 13.2908C61.7207 13.2908 61.3543 13.5489 60.9884 13.8498L56.0351 17.9337L57.6936 10.2378C57.7368 9.97993 57.8013 9.76496 57.8013 9.55C57.8013 8.926 57.3705 8.51807 56.7028 8.51807C55.9921 8.51807 55.6691 8.99106 55.5182 9.72191L52.826 22.2116C52.7614 22.4697 52.7183 22.6846 52.7183 22.8996C52.7183 23.5236 53.149 23.9314 53.7952 23.9314C54.5274 23.9314 54.8505 23.4584 55.0013 22.7275L55.346 21.1153L57.3705 19.4815L57.866 21.9751C58.0598 22.964 58.5767 23.9314 59.9121 23.9314C61.2407 23.9314 62.2857 22.7203 63.3328 21.0841C63.6505 22.7979 64.872 23.9314 66.5674 23.9314C68.2689 23.9314 69.4319 22.921 70.1858 21.5667V21.6096C70.1858 23.0071 70.8966 23.9314 72.1458 23.9314C73.2752 23.9314 74.2135 23.2517 75.0516 21.8065C75.5269 23.0659 76.5892 23.9314 78.0682 23.9314C79.8128 23.9314 81.0619 22.8781 81.8589 21.4162V21.5452C81.8589 23.093 82.6343 23.932 83.905 23.932C85.027 23.932 85.981 23.2821 86.7944 22.2233C87.4135 23.281 88.5229 23.932 90.022 23.932C93.4681 23.932 95.8157 20.5141 95.8157 17.2465C95.8156 14.9457 94.4156 13.2904 92.0248 13.2904ZM70.5512 17.6541C69.926 20.3412 68.5912 21.8675 67.0835 21.8675C66.0712 21.8675 65.5111 21.0936 65.5111 19.9331C65.5111 17.6544 67.1696 15.2037 69.3874 15.2037C70.0549 15.2037 70.572 15.3973 71.0243 15.6767L70.5512 17.6541ZM82.5479 16.5153C81.8587 19.6754 80.2864 21.8681 78.5633 21.8681C77.6157 21.8681 77.0556 21.1373 77.0556 19.9337C77.0556 17.6335 78.6499 15.2474 80.7818 15.2474C81.6002 15.2474 82.2248 15.5268 82.6771 15.8923L82.5479 16.5153ZM90.2805 21.8677C89.0314 21.8677 88.5143 20.9647 88.5143 19.8255C88.5143 17.7402 89.9573 15.3541 91.7666 15.3541C93.0158 15.3541 93.5328 16.257 93.5328 17.3963C93.5325 19.503 92.0895 21.8677 90.2805 21.8677Z" fill="white"/>
<path d="M44.1879 13.2905C40.7417 13.2905 38.394 16.7086 38.394 19.9546C38.394 22.2762 39.794 23.9315 42.1848 23.9315C45.6309 23.9315 47.9787 20.5136 47.9787 17.246C47.9787 14.9458 46.5784 13.2905 44.1879 13.2905ZM42.4433 21.8678C41.194 21.8678 40.6771 20.9649 40.6771 19.8256C40.6771 17.7404 42.1202 15.3542 43.9294 15.3542C45.1787 15.3542 45.6956 16.2572 45.6956 17.3964C45.6956 19.5032 44.2525 21.8678 42.4433 21.8678Z" fill="white"/>
<path d="M11.3014 9.616C13.4963 9.616 15.2756 8.58267 15.2756 7.308C15.2756 6.03333 13.4963 5 11.3014 5C9.10648 5 7.32715 6.03333 7.32715 7.308C7.32715 8.58267 9.10648 9.616 11.3014 9.616Z" fill="#E6007A"/>
<path d="M11.3014 26.9998C13.4963 26.9998 15.2756 25.9665 15.2756 24.6918C15.2756 23.4171 13.4963 22.3838 11.3014 22.3838C9.10648 22.3838 7.32715 23.4171 7.32715 24.6918C7.32715 25.9665 9.10648 26.9998 11.3014 26.9998Z" fill="#E6007A"/>
<path d="M5.76245 12.8079C6.85991 10.9107 6.85296 8.85608 5.74692 8.21874C4.64089 7.58141 2.8546 8.60272 1.75714 10.4999C0.659685 12.3971 0.666638 14.4517 1.77267 15.0891C2.87871 15.7264 4.66499 14.7051 5.76245 12.8079Z" fill="#E6007A"/>
<path d="M20.8464 21.4998C21.9439 19.6026 21.9369 17.548 20.8309 16.9106C19.7249 16.2733 17.9386 17.2946 16.8411 19.1918C15.7437 21.089 15.7506 23.1436 16.8567 23.781C17.9627 24.4183 19.749 23.397 20.8464 21.4998Z" fill="#E6007A"/>
<path d="M5.74692 23.7813C6.85295 23.1439 6.85991 21.0893 5.76245 19.1921C4.66499 17.2949 2.87871 16.2736 1.77267 16.9109C0.666637 17.5483 0.659686 19.6029 1.75714 21.5001C2.8546 23.3973 4.64089 24.4186 5.74692 23.7813Z" fill="#E6007A"/>
<path d="M20.8309 15.0894C21.9369 14.452 21.9439 12.3974 20.8464 10.5002C19.749 8.60302 17.9627 7.58171 16.8567 8.21905C15.7506 8.85638 15.7437 10.911 16.8411 12.8082C17.9386 14.7054 19.7249 15.7267 20.8309 15.0894Z" fill="#E6007A"/>
</svg>
